<svg xmlns="http://www.w3.org/2000/svg" xmlns:xlink="http://www.w3.org/1999/xlink" width="200" height="52.088" viewBox="0 0 200 52.088">
  <defs>
    <clipPath id="clip-path">
      <rect id="Rechteck_2" data-name="Rechteck 2" width="200" height="52.088"/>
    </clipPath>
  </defs>
  <g id="cons_Logo" data-name="cons Logo" transform="translate(0 0)">
    <g id="Gruppe_2" data-name="Gruppe 2" transform="translate(0 0)" clip-path="url(#clip-path)">
      <path id="Pfad_3" data-name="Pfad 3" d="M59.075,32.774c-3.015,0-6.775-1.619-6.775-7.73s3.733-7.7,6.775-7.7a6.423,6.423,0,0,1,4.979,2.032l-2.547,2.548a3.04,3.04,0,0,0-2.433-1.185,2.6,2.6,0,0,0-2.141.961,5.1,5.1,0,0,0-.84,3.334,5.318,5.318,0,0,0,.84,3.388,2.608,2.608,0,0,0,2.141.989,3.048,3.048,0,0,0,2.433-1.185l2.547,2.52a6.458,6.458,0,0,1-4.979,2.032" transform="translate(2.945 0.976)"/>
      <path id="Pfad_4" data-name="Pfad 4" d="M72.771,21.393A2.38,2.38,0,0,0,71,20.715a2.312,2.312,0,0,0-1.741.678c-.78.779-.867,2.086-.867,3.652s.088,2.893.867,3.679A2.322,2.322,0,0,0,71,29.4a2.382,2.382,0,0,0,1.768-.676c.78-.781.867-2.115.867-3.679s-.088-2.866-.867-3.652M75.7,30.925A6.259,6.259,0,0,1,71,32.774a6.152,6.152,0,0,1-4.66-1.849c-1.355-1.423-1.714-3.13-1.714-5.88s.345-4.432,1.714-5.848A6.177,6.177,0,0,1,71,17.34,6.277,6.277,0,0,1,75.7,19.2c1.355,1.415,1.707,3.131,1.707,5.848s-.352,4.458-1.707,5.88" transform="translate(3.639 0.976)"/>
      <path id="Pfad_5" data-name="Pfad 5" d="M88.329,32.605V23.48a2.515,2.515,0,1,0-5.007,0v9.125h-3.8V17.511h3.672v1.355a5.185,5.185,0,0,1,3.781-1.532,4.876,4.876,0,0,1,3.564,1.355,5.59,5.59,0,0,1,1.538,4.289v9.627Z" transform="translate(4.478 0.976)"/>
      <path id="Pfad_6" data-name="Pfad 6" d="M100.292,32.774c-2.378,0-4.519-.264-6.43-2.168l2.466-2.466a5.471,5.471,0,0,0,4.031,1.423c1.3,0,2.663-.434,2.663-1.558,0-.752-.407-1.274-1.592-1.4l-2.393-.237c-2.709-.258-4.4-1.443-4.4-4.227,0-3.13,2.751-4.81,5.82-4.81,2.351,0,4.322.407,5.773,1.768l-2.318,2.344a5.271,5.271,0,0,0-3.516-1.01c-1.511,0-2.147.678-2.147,1.45,0,.548.23,1.185,1.565,1.3l2.378.238c2.981.284,4.485,1.877,4.485,4.431,0,3.333-2.832,4.918-6.4,4.918" transform="translate(5.286 0.976)"/>
      <path id="Pfad_7" data-name="Pfad 7" d="M113.513,32.89a4.065,4.065,0,0,1-4.4-3.7,4.189,4.189,0,0,1-.005-.62V21.116h-1.592V18.229h1.592V12.267h3.767v5.962h2.669V21.1H112.9v7.242c0,.867.407,1.355,1.3,1.355h1.355v3.184Z" transform="translate(6.055 0.69)"/>
      <path id="Pfad_8" data-name="Pfad 8" d="M126.569,21.629a2.536,2.536,0,0,0-4.465,1.877v9.1h-3.767V17.509h3.713v1.478a5.105,5.105,0,0,1,3.787-1.619A4.554,4.554,0,0,1,129.4,18.79Z" transform="translate(6.664 0.977)"/>
      <path id="Pfad_9" data-name="Pfad 9" d="M139,32.6V31.173a5.163,5.163,0,0,1-3.767,1.565,4.916,4.916,0,0,1-3.564-1.355A5.584,5.584,0,0,1,130.14,27.1V17.5h3.767v9.125a2.515,2.515,0,1,0,5.007,0V17.5h3.767V32.6Z" transform="translate(7.328 0.985)"/>
      <path id="Pfad_10" data-name="Pfad 10" d="M154.475,32.891,150.77,26.6l-1.593,1.788v4.5H145.4V12.267h3.773v11.7l5.007-6.172h4.546l-5.386,6.084,5.793,9.01Z" transform="translate(8.188 0.69)"/>
      <path id="Pfad_11" data-name="Pfad 11" d="M165.521,32.89a4.062,4.062,0,0,1-4.37-4.316V21.122h-1.592V18.229h1.592V12.267h3.767v5.962h2.669V21.1h-2.669v7.242c0,.867.407,1.355,1.3,1.355h1.354v3.184Z" transform="translate(8.985 0.69)"/>
      <path id="Pfad_12" data-name="Pfad 12" d="M170.4,17.8h3.76V32.89H170.4Zm-.061-5.529h3.848v3.069h-3.848Z" transform="translate(9.592 0.69)"/>
      <path id="Pfad_13" data-name="Pfad 13" d="M186.117,17.5l-3.042,9.329L180.013,17.5h-3.977L181.6,32.6h2.953L190.088,17.5Z" transform="translate(9.913 0.985)"/>
      <path id="Pfad_14" data-name="Pfad 14" d="M23.539,39.793A13.767,13.767,0,1,1,37.3,26.02v.04A13.76,13.76,0,0,1,23.539,39.793m19.2-12.608-2-1.125,2-1.158A8.6,8.6,0,0,0,34.142,10L32.11,11.148v-2.3a8.6,8.6,0,0,0-17.2-.483c0,.161,0,.321,0,.483v2.31l-2-1.151a8.605,8.605,0,0,0-8.6,14.9L6.33,26.06,4.338,27.185a8.605,8.605,0,0,0,8.6,14.9l2-1.158v2.31a8.6,8.6,0,1,0,17.2.483c0-.161,0-.322,0-.483v-2.31l2.032,1.158A8.6,8.6,0,0,0,42.98,27.3c-.069-.041-.137-.08-.207-.119" transform="translate(0 0)"/>
      <path id="Pfad_15" data-name="Pfad 15" d="M23.152,32.774c-3.015,0-6.775-1.619-6.775-7.73s3.732-7.7,6.775-7.7a6.423,6.423,0,0,1,4.979,2.032l-2.547,2.548a3.04,3.04,0,0,0-2.433-1.185,2.614,2.614,0,0,0-2.141.961,5.139,5.139,0,0,0-.833,3.334,5.4,5.4,0,0,0,.833,3.388,2.613,2.613,0,0,0,2.147.989,3.047,3.047,0,0,0,2.433-1.185l2.548,2.52a6.464,6.464,0,0,1-4.981,2.032" transform="translate(0.922 0.976)"/>
    </g>
  </g>
</svg>
